<?xml version="1.0"?>
<svg xmlns="http://www.w3.org/2000/svg" height="512px" viewBox="0 0 60 61" width="512px"><g><g id="Page-1" fill="none" fill-rule="evenodd"><g id="020---Scraping-Car" fill="rgb(0,0,0)" fill-rule="nonzero"><path id="Shape" d="m7.026 55.289c.3147573 0 .61114562-.1481942.8-.4l3.4-4.515c.2143594-.2858125.2599564-.6642734.1196152-.9928203-.1403411-.3285469-.4452994-.5572656-.8-.6-.3547005-.0427344-.70525585.1070078-.9196152.3928203l-3.4 4.515c-.22726324.3030176-.26381921.7084296-.09442719 1.0472136.16939201.338784.51565513.5527864.89442719.5527864z" data-original="#000000" class="active-path" data-old_color="#000000" fill="#FFB32F"/><path id="Shape" d="m57.866 43.883c.3301625.1494172.7153259.108515 1.0067442-.1069106s.4434801-.5716572.397461-.9311221-.2829166-.6659015-.6192052-.8009673l-2.759-1.178 1.732-1c.4742136-.2780058.6351286-.886647.3602745-1.3626943-.274854-.4760473-.8824145-.640996-1.3602745-.3693057l-1.731 1 .359-2.977c.0426933-.3547647-.1071213-.7053575-.3930099-.9197133-.2858887-.2143558-.6644182-.2599089-.9930001-.1195-.3285819.140409-.5572968.4454486-.59999.8002133l-.539 4.467-4.878 2.815c-.008-.009-.014-.019-.022-.027-.5054337-.4950269-1.1376166-.8410493-1.827-1v-5.673l3.6-2.7c.4418278-.3313708.5313708-.9581722.2-1.4s-.9581722-.5313708-1.4-.2l-2.4 1.8v-2c0-.5522847-.4477153-1-1-1s-1 .4477153-1 1v2l-2.4-1.8c-.4418278-.3313708-1.0686292-.2418278-1.4.2s-.2418278 1.0686292.2 1.4l3.6 2.7v5.674c-.6893834.1589507-1.3215663.5049731-1.827 1-.008.008-.014.018-.022.027l-4.878-2.816-.539-4.467c-.0426932-.3547647-.2714081-.6598043-.59999-.8002133-.3285819-.1404089-.7071114-.0948558-.9930001.1195-.2858886.2143558-.4357032.5649486-.3930099.9197133l.359 2.977-1.731-1c-.47786-.2716903-1.0854205-.1067416-1.3602745.3693057-.2748541.4760473-.1139391 1.0846885.3602745 1.3626943l1.732 1-2.759 1.178c-.3362886.1350658-.5731861.4415024-.6192052.8009673s.1060427.7156965.397461.9311221.6765817.2563278 1.0067442.1069106l4.138-1.767 4.889 2.822c-.2146743.691727-.2146743 1.432273 0 2.124l-4.889 2.822-4.138-1.767c-.3301625-.1494172-.7153259-.108515-1.0067442.1069106s-.4434801.5716572-.397461.9311221.2829166.6659015.6192052.8009673l2.759 1.178-1.732 1c-.3119508.1773616-.5049532.5082732-.5057421.8671183s.1907567.6906021.5019247.8693336c.3111679.1787314.694247.1770325 1.0038174-.0044519l1.731-1-.359 2.977c-.0318873.263371.0421864.5286193.205917.7373616.1637305.2087424.4036978.3438694.667083.3756384.041 0 .081.007.121.007.5059158-.0004524.9317962-.3786789.992-.881l.539-4.467 4.878-2.815c.008.009.014.019.022.027.5051209.5018203 1.1363151.8580114 1.827 1.031v5.642l-3.6 2.7c-.2858125.2143594-.4355547.5649147-.3928203.9196152.0427344.3547006.2714531.6596589.6.8.3285469.1403412.7070078.0947442.9928203-.1196152l2.4-1.8v2c0 .5522847.4477153 1 1 1s1-.4477153 1-1v-2l2.4 1.8c.4418278.3313708 1.0686292.2418278 1.4-.2s.2418278-1.0686292-.2-1.4l-3.6-2.7v-5.642c.6906849-.1729886 1.3218791-.5291797 1.827-1.031.008-.008.014-.018.022-.027l4.878 2.816.539 4.467c.0602038.5023211.4860842.8805476.992.881.04 0 .08 0 .121-.007.2633852-.031769.5033525-.166896.667083-.3756384.1637306-.2087423.2378043-.4739906.205917-.7373616l-.359-2.977 1.731 1c.47786.2716903 1.0854205.1067416 1.3602745-.3693057.2748541-.4760473.1139391-1.0846885-.3602745-1.3626943l-1.732-1 2.759-1.178c.3362886-.1350658.5731861-.4415024.6192052-.8009673s-.1060427-.7156965-.397461-.9311221-.6765817-.2563278-1.0067442-.1069106l-4.138 1.767-4.889-2.822c.2146743-.691727.2146743-1.432273 0-2.124l4.889-2.822zm-14.279 3.53c-.5727074-.5717257-.744448-1.4322304-.4350871-2.1800004.3093608-.74777 1.0388504-1.2354257 1.8480871-1.2354257s1.5387263.4876557 1.8480871 1.2354257c.3093609.74777.1376203 1.6082747-.4350871 2.1800004-.7898773.7570986-2.0361227.7570986-2.826 0z" data-original="#000000" class="active-path" data-old_color="#000000" fill="#FFB32F"/><path id="Shape" d="m6.64 61c2.18737343.0090681 4.2371422-1.0661897 5.473-2.871l16.053-20.884 20.383-11.545.009-.006c.008 0 .014-.012.022-.017.0921159-.0584475.1738935-.131777.242-.217.01-.011.024-.017.032-.028l1.665-2.212c.411491-.5508299.5111913-1.2744122.264-1.916l1.284-1.704c.3313708-.4418278.2418278-1.0686292-.2-1.4s-1.0686292-.2418278-1.4.2l-1.1 1.458-2.918-2.2 1.1-1.459c.2143594-.2858125.2599564-.6642734.1196152-.9928203-.1403411-.3285469-.4452994-.5572656-.8-.6-.3547005-.0427344-.7052558.1070078-.9196152.3928203l-1.1 1.459-2.917-2.2 1.1-1.458c.3313708-.4418278.2418278-1.0686292-.2-1.4s-1.0686292-.2418278-1.4.2l-1.1 1.458-2.917-2.2 1.1-1.459c.3313708-.4418278.2418277-1.06862911-.2-1.39999994-.4418278-.33137084-1.0686291-.24182781-1.4.19999994l-1.1 1.459-2.918-2.2 1.111-1.458c.2143594-.28581247.2599564-.66427344.1196152-.99282032-.1403411-.32854689-.4452994-.55726559-.8-.6-.3547005-.04273441-.7052558.10700785-.9196152.39282032l-1.1 1.458-2.918-2.2 1.1-1.458c.254181-.28065727.328042-.68080728.1908065-1.03371359-.1372356-.3529063-.4620265-.5980315-.8390373-.63323565-.3770107-.03520414-.7415691.14555167-.9417692.46694924l-1.29 1.705c-.6855464-.06203517-1.3545055.23443966-1.769.784l-1.664 2.211c-.009.012-.01.026-.018.038-.0665681.09295422-.1163214.19686091-.147.307l-.007.017v.006l-5.458 22.762-16.414 21.409c-1.37090344 2.0372794-1.50733266 4.6642938-.35483976 6.8326211 1.15249289 2.1683274 3.40626008 3.5249228 5.86183976 3.5283789zm20.94-25.722-4.963-3.737 4.2-16.107c.0982737-.348891.0000596-.7236464-.2567006-.9794919-.2567602-.2558454-.6318638-.3527213-.9804018-.2532029-.3485381.0995184-.6159376.3798488-.6988976.7326948l-3.992 15.306-1.289-.975 5-20.847 10.821 8.147 10.821 8.147zm-1.142-30.187 22.483 16.928-1.063 1.412-22.482-16.931zm-23.684 46.718 15.9-20.741 7.432 5.6-15.6 20.3c-1.14692599 1.6840292-3.25726235 2.4242788-5.20485749 1.8257249-1.94759513-.5985538-3.27795132-2.3962305-3.28114251-4.4337249-.00712189-.9062788.25532698-1.7942192.754-2.551z" data-original="#000000" class="active-path" data-old_color="#000000" fill="#FFB32F"/></g></g></g> </svg>
